<svg width="244" height="267" viewBox="0 0 244 267" fill="none" xmlns="http://www.w3.org/2000/svg">
<path d="M173.959 166.689L122 216.286L70.0408 166.689C31.0989 168.3 -0.000255966 198.714 -0.000255966 236.25V241.241C-0.000255966 255.018 11.7096 266.195 26.1426 266.195H217.857C232.29 266.195 244 255.018 244 241.241V236.25C244 198.714 212.901 168.3 173.959 166.689ZM7.40689 41.5L10.8926 42.2799V72.6412C7.0801 74.8248 4.35689 78.6199 4.35689 83.1949C4.35689 87.562 6.86224 91.2012 10.4024 93.4367L1.90599 125.826C0.980101 129.413 3.04974 133.104 6.04528 133.104H28.8114C31.8069 133.104 33.8765 129.413 32.9506 125.826L24.4542 93.4367C27.9944 91.2012 30.4997 87.562 30.4997 83.1949C30.4997 78.6199 27.7765 74.8248 23.964 72.6412V45.2952L59.9105 53.5614C55.2265 62.5035 52.2855 72.4853 52.2855 83.1949C52.2855 119.951 83.4935 149.74 122 149.74C160.506 149.74 191.714 119.951 191.714 83.1949C191.714 72.4853 188.827 62.5035 184.089 53.5614L236.538 41.5C246.451 39.2125 246.451 27.4111 236.538 25.1236L132.838 1.20879C125.758 -0.402862 118.296 -0.402862 111.216 1.20879L7.40689 25.0716C-2.45115 27.3591 -2.45115 39.2125 7.40689 41.5Z" fill="#8E1291"/>
</svg>
